<svg id="Layer_1" enable-background="new 0 0 512.023 512.023" height="512" viewBox="0 0 512.023 512.023" width="512" xmlns="http://www.w3.org/2000/svg"><path d="m326.55 244.663c3.703-8.023.201-17.529-7.822-21.232-8.025-3.704-17.529-.201-21.232 7.823l-21.556 46.705h-45.13c5.329-23.786-1.312-49.152-19.474-67.314-6.248-6.248-16.379-6.248-22.627 0-6.249 6.249-6.249 16.379 0 22.628 15.856 15.856 15.856 41.516 0 57.372l-8 8c-6.249 6.249-6.249 16.379 0 22.627 6.248 6.248 16.379 6.249 22.627 0 8.661-8.661 8.898-8.83 11.095-11.314h47.683c-9.249 25.577-14.092 52.88-14.092 80 0 8.836 7.163 16 16 16h16c8.837 0 16-7.164 16-16 0-8.621-6.818-15.649-15.356-15.987 3.589-44.676 17.874-68.619 45.884-129.308z"/><path d="m208.022 377.958h-5.373l-23.483-23.483c-7.186-7.187-11.144-16.741-11.144-26.904 0-21.165-9.479-40.886-26.005-54.107-8.665-6.931-13.995-17.473-13.995-29.118 0-8.836-7.163-16-16-16s-16 7.164-16 16c0 11.132 2.645 21.852 7.536 31.449l-55.049 55.049c-15.79 15.791-24.486 36.784-24.486 59.114 0 8.837 7.163 16 16 16h16c8.837 0 16-7.163 16-16 0-8.002-5.873-14.631-13.544-15.813 2.473-7.713 6.765-14.781 12.657-20.674l53.095-53.095c7.522 7.034 11.792 16.785 11.792 27.194 0 18.71 7.286 36.301 20.517 49.531l28.17 28.17c5.929 5.93 12.341 4.686 23.313 4.686 8.837 0 16-7.163 16-16s-7.164-15.999-16.001-15.999z"/><path d="m507.336 210.644-24.83-24.83c-1.602-1.602-2.483-3.731-2.483-5.996 0-14.137-7.53-27.437-19.652-34.711-7.58-4.548-17.406-2.089-21.952 5.488-4.547 7.577-2.09 17.405 5.487 21.952 2.54 1.524 4.117 4.31 4.117 7.271 0 10.813 4.211 20.978 11.856 28.624l14.872 14.872c-6.513 5.102-15.373 6.896-23.61 4.151l-38.059-12.686c-13.035-4.345-25.147 8.792-19.77 21.43-30.79 12.316-57.63 27.461-84.603 54.435-10.11 10.108-2.812 27.314 11.313 27.314 8.34 0 10.707-4.587 19.987-12.858 11.118 48.498 37.775 71.576 64.362 99.824 3.024 3.212 7.24 5.034 11.651 5.034h20c8.837 0 16-7.164 16-16 0-8.837-7.163-16-16-16h-13.087c-22.257-23.646-48.906-46.63-54.151-94.273 18.469-11.352 30.435-15.374 63.739-28.695l8.499 2.833c26.735 8.911 56.599-3.283 69.312-28.71 3.079-6.159 1.872-13.599-2.998-18.469z"/><path d="m30.333 317.114 39.421-78.841c22.991-31.483 58.949-48.315 95.089-48.315h123.18c2.652 0-5.887 1.822 102.984-23.797 22.757-5.355 42.707-19.924 54.735-39.971 4.547-7.577 2.09-17.406-5.487-21.952-7.58-4.547-17.406-2.089-21.952 5.488-7.609 12.682-20.23 21.898-34.626 25.286l-97.512 22.946h-121.323c-47.111 0-93.052 22.397-121.84 62.7-1.052 1.471 2.551-5.54-41.291 82.144-5.359 10.718 2.545 23.159 14.298 23.159 5.87.001 11.521-3.241 14.324-8.847z"/></svg>